# Blender v2.79 (sub 0) OBJ File: 'Pallet.blend'
# www.blender.org
o Pallet
v -0.649998 0.214820 -0.571874
v -0.649998 0.179640 -0.571874
v 0.650000 0.179640 -0.571875
v 0.650000 0.214820 -0.571875
v 0.650000 0.214820 -0.750000
v 0.650000 0.179640 -0.750000
v -0.649998 0.179640 -0.750000
v -0.650000 0.214820 -0.750000
v 0.650000 0.179640 0.750000
v -0.650000 0.179640 0.750000
v -0.650000 0.179640 0.571875
v 0.649998 0.179640 0.571874
v -0.093702 0.179640 -0.571874
v -0.093702 0.035180 -0.571874
v 0.093703 0.035180 -0.571875
v 0.093703 0.179640 -0.571875
v 0.093703 0.035180 -0.750000
v 0.093703 0.179640 -0.750000
v -0.093702 0.179640 -0.750000
v -0.093702 0.035180 -0.750000
v -0.650000 0.214820 0.750000
v 0.650000 0.214820 0.750000
v 0.650000 0.214820 0.571875
v -0.650000 0.214820 0.571875
v 0.462595 0.179640 -0.571874
v 0.462595 0.035180 -0.571874
v 0.650000 0.035180 -0.571875
v 0.650000 0.214820 0.089062
v 0.650000 0.179640 0.089062
v 0.650000 0.179640 -0.089063
v 0.650000 0.214820 -0.089063
v -0.649998 0.214820 0.089063
v -0.650000 0.214820 -0.089062
v -0.650000 0.179640 -0.089062
v -0.649998 0.179640 0.089063
v 0.650000 0.035180 -0.750000
v 0.462595 0.035180 -0.750000
v 0.462595 0.179640 -0.750000
v -0.093703 0.179640 0.571875
v -0.093703 0.035180 0.571875
v -0.093703 0.035180 0.750000
v -0.093703 0.179640 0.750000
v -0.462594 0.179640 0.089062
v -0.462594 0.035180 0.089062
v -0.462594 0.035180 -0.089063
v -0.462594 0.179640 -0.089063
v -0.650000 0.035180 -0.089062
v -0.649998 0.035180 0.089063
v 0.650000 0.035180 -0.089063
v 0.650000 0.000000 -0.089062
v -0.650000 0.000000 -0.089063
v 0.462595 0.250000 -0.750000
v 0.462595 0.250000 0.750000
v 0.650000 0.250000 0.750000
v 0.650000 0.250000 -0.750000
v 0.462595 0.214820 0.750000
v 0.462595 0.214820 -0.750000
v 0.184446 0.250000 -0.750000
v 0.184446 0.214820 -0.750000
v 0.184446 0.214820 0.750000
v 0.184446 0.250000 0.750000
v 0.371852 0.214820 0.750000
v 0.371852 0.250000 0.750000
v 0.371852 0.214820 -0.750000
v 0.371852 0.250000 -0.750000
v -0.093702 0.214820 0.750000
v -0.093702 0.214820 -0.750000
v 0.093703 0.214820 -0.750000
v 0.093703 0.214820 0.750000
v 0.093703 0.250000 0.750000
v 0.093703 0.250000 -0.750000
v -0.093702 0.250000 0.750000
v -0.093702 0.250000 -0.750000
v -0.371850 0.250000 -0.750000
v -0.371850 0.250000 0.750000
v -0.184446 0.250000 0.750000
v -0.184446 0.250000 -0.750000
v -0.371850 0.214820 0.750000
v -0.371850 0.214820 -0.750000
v -0.184446 0.214820 -0.750000
v -0.184446 0.214820 0.750000
v -0.650000 0.250000 -0.750000
v -0.650000 0.250000 0.750000
v -0.462594 0.250000 0.750000
v -0.462594 0.214820 0.750000
v -0.462594 0.214820 -0.750000
v -0.462594 0.250000 -0.750000
v -0.462594 0.179640 0.750000
v -0.462594 0.035180 0.750000
v -0.462594 0.035180 0.571875
v -0.462594 0.179640 0.571875
v -0.650000 0.035180 0.571875
v -0.650000 0.035180 0.750000
v 0.462595 0.035180 -0.089062
v 0.462595 0.179640 -0.089062
v 0.462595 0.035180 0.089063
v 0.462595 0.179640 0.089063
v 0.650000 0.035180 0.089062
v 0.462594 0.179640 0.571875
v 0.462594 0.035180 0.571875
v 0.462594 0.035180 0.750000
v 0.462594 0.179640 0.750000
v 0.649998 0.035180 0.571874
v 0.649998 0.035180 0.750000
v -0.649998 0.035180 -0.571874
v -0.649998 0.035180 -0.750000
v -0.649998 0.000000 -0.750000
v -0.649998 0.000000 -0.571874
v 0.650000 0.000000 -0.750000
v 0.650000 0.000000 -0.571875
v 0.650000 -0.000000 0.750000
v 0.650000 -0.000000 0.571875
v 0.650000 -0.000000 0.089062
v -0.649998 -0.000000 0.089063
v -0.462594 0.179640 -0.750000
v -0.462594 0.035180 -0.750000
v -0.462594 0.035180 -0.571874
v -0.462594 0.179640 -0.571874
v -0.093702 0.179640 -0.089062
v -0.093702 0.035180 -0.089062
v -0.093702 0.035180 0.089063
v -0.093702 0.179640 0.089063
v 0.093703 0.035180 0.089063
v 0.093703 0.179640 0.089063
v 0.093703 0.035180 -0.089063
v 0.093703 0.179640 -0.089062
v 0.093703 0.179640 0.571874
v 0.093703 0.035180 0.571874
v 0.093703 0.035180 0.750000
v 0.093703 0.179640 0.750000
v -0.650000 -0.000000 0.571875
v -0.650000 -0.000000 0.750000
vt -0.618567 0.218054
vt 1.302640 0.283274
vt -0.618567 0.283274
vt 1.530780 0.283274
vt 3.451990 0.218054
vt 3.451990 0.283274
vt 1.000000 0.146250
vt 0.000000 0.003750
vt 0.000000 0.146250
vt 1.302640 0.218054
vt 0.000000 1.000000
vt 0.190625 0.655375
vt 0.190625 1.000000
vt 0.387500 1.000000
vt 0.587500 0.655375
vt 0.781250 1.000000
vt 0.587500 1.000000
vt 0.387500 0.655375
vt 3.680130 0.283274
vt 1.000000 0.146250
vt 0.000000 0.003750
vt 0.000000 0.146250
vt 0.193750 0.655375
vt 0.384375 1.000000
vt 0.193750 1.000000
vt 1.077640 0.393054
vt 1.305780 0.458274
vt 1.077640 0.458274
vt 0.000000 0.645250
vt 1.000000 0.492250
vt 0.000000 0.492250
vt 3.226990 0.393054
vt 3.455130 0.458274
vt 3.226990 0.458274
vt 1.305780 0.393054
vt -0.843567 0.393054
vt -0.843567 0.458274
vt 0.581250 0.655375
vt 0.781250 1.000000
vt 0.581250 1.000000
vt 0.384375 0.655375
vt 0.781250 0.655375
vt 1.000000 1.000000
vt 0.387500 0.655375
vt 0.587500 1.000000
vt 0.387500 1.000000
vt 1.000000 0.645250
vt 0.000000 0.492250
vt 0.000000 0.645250
vt 0.190625 0.655375
vt 0.387500 1.000000
vt 0.190625 1.000000
vt 0.587500 0.655375
vt 0.781250 1.000000
vt 0.587500 1.000000
vt 1.524530 0.480554
vt 3.445740 0.545774
vt 1.524530 0.545774
vt 1.000000 0.653125
vt 0.000000 0.487500
vt 0.000000 0.653125
vt 1.000000 0.653125
vt 0.000000 0.487500
vt 0.000000 0.653125
vt -2.230100 0.480554
vt 0.554261 0.545774
vt -2.230100 0.545774
vt 0.554261 0.480554
vt 0.884903 0.545774
vt 0.884903 0.480554
vt 3.669261 0.545774
vt 3.669261 0.480554
vt 3.999900 0.545774
vt 1.000000 0.325000
vt 0.000000 0.146500
vt 0.000000 0.325000
vt 0.084903 0.480554
vt 2.869260 0.545774
vt 0.084903 0.545774
vt -0.245740 0.480554
vt -0.245740 0.545774
vt -3.030100 0.480554
vt -3.030100 0.545774
vt 2.869260 0.480554
vt 3.199900 0.545774
vt 1.000000 0.325000
vt 0.000000 0.146500
vt 0.000000 0.325000
vt 1.000000 0.487500
vt 0.000000 0.325000
vt 0.000000 0.487500
vt 1.000000 0.487500
vt 0.000000 0.325000
vt 0.000000 0.487500
vt 1.372400 0.480554
vt 4.156760 0.545774
vt 1.372400 0.545774
vt 4.156760 0.480554
vt 4.487400 0.545774
vt -1.742600 0.480554
vt 1.041760 0.545774
vt -1.742600 0.545774
vt 1.041760 0.480554
vt 1.000000 0.146500
vt 0.000000 0.003387
vt 0.000000 0.146500
vt 1.000000 0.146500
vt 0.000000 0.003387
vt 0.000000 0.146500
vt -2.498850 0.480554
vt 0.285510 0.545774
vt -2.498850 0.545774
vt 0.616153 0.480554
vt 3.400510 0.545774
vt 0.616153 0.545774
vt 3.400510 0.480554
vt 3.731150 0.545774
vt 0.285510 0.480554
vt -2.736350 0.480554
vt 0.048010 0.545774
vt -2.736350 0.545774
vt 0.048010 0.480554
vt 0.378653 0.545774
vt 3.163010 0.480554
vt 3.493650 0.545774
vt 3.163010 0.545774
vt 0.378653 0.480554
vt 0.000000 0.652450
vt 1.000000 0.485050
vt 1.000000 0.652450
vt 0.000000 0.652450
vt 1.000000 0.485050
vt 1.000000 0.652450
vt 0.387500 0.655375
vt 0.587500 1.000000
vt 0.387500 1.000000
vt 0.587500 0.655375
vt 0.781250 1.000000
vt 0.000000 0.655375
vt 0.190625 1.000000
vt 0.000000 1.000000
vt 0.190625 0.655375
vt 0.387500 0.655375
vt 0.587500 1.000000
vt 0.387500 1.000000
vt 0.587500 0.655375
vt 0.781250 1.000000
vt 0.000000 0.655375
vt 0.190625 1.000000
vt 0.000000 1.000000
vt 0.190625 0.655375
vt 0.384375 0.655375
vt 0.581250 1.000000
vt 0.384375 1.000000
vt 0.193750 0.655375
vt 0.193750 1.000000
vt 0.781250 0.655375
vt 0.781250 1.000000
vt 1.000000 1.000000
vt 0.000000 0.655375
vt 0.000000 1.000000
vt 0.387500 0.655375
vt 1.000000 0.645250
vt 0.000000 0.492250
vt 0.000000 0.645250
vt 3.445740 0.393054
vt 3.673880 0.458274
vt 3.445740 0.458274
vt 1.524530 0.393054
vt 1.524530 0.458274
vt 1.296390 0.393054
vt 1.296390 0.458274
vt 0.000000 0.645250
vt 1.000000 0.492250
vt 0.000000 0.492250
vt -0.624817 0.393054
vt -0.624817 0.458274
vt 1.302640 0.283274
vt 1.530780 0.218054
vt 1.530780 0.283274
vt 0.000000 0.146250
vt 1.000000 0.003750
vt 0.000000 0.003750
vt 1.000000 0.318013
vt 0.000000 0.156988
vt 0.000000 0.318013
vt -0.624817 0.480554
vt 1.296390 0.545774
vt -0.624817 0.545774
vt 3.445740 0.480554
vt 3.725180 0.545774
vt -0.624817 0.480554
vt 1.296390 0.545774
vt -0.624817 0.545774
vt 0.000000 0.473720
vt 1.000000 0.338780
vt 0.000000 0.338780
vt 3.445740 0.480554
vt 3.673880 0.545774
vt 3.445740 0.545774
vt 0.000000 0.473720
vt 1.000000 0.338780
vt 0.000000 0.338780
vt 1.296390 0.480554
vt 1.524530 0.545774
vt 1.524530 0.480554
vt 0.190625 0.655375
vt 0.387500 1.000000
vt 0.190625 1.000000
vt 0.587500 0.655375
vt 0.781250 1.000000
vt 0.587500 1.000000
vt 0.000000 0.655375
vt 0.000000 1.000000
vt 0.387500 0.655375
vt 0.190625 0.655375
vt 0.387500 1.000000
vt 0.190625 1.000000
vt 0.387500 0.655375
vt 0.587500 1.000000
vt 0.587500 0.655375
vt 0.781250 1.000000
vt 0.000000 0.655375
vt 0.000000 1.000000
vt 0.190625 0.655375
vt 0.190625 1.000000
vt 0.587500 0.655375
vt 0.781250 1.000000
vt 0.000000 0.655375
vt 0.000000 1.000000
vt 3.451990 0.218054
vt 3.451990 0.283274
vt -0.618567 0.218054
vt -0.618567 0.283274
vt 1.000000 0.473720
vt 0.000000 0.338780
vt 0.000000 0.473720
vt 3.680130 0.283274
vt 1.000000 0.473720
vt 0.000000 0.338780
vt 0.000000 0.473720
vt 1.530780 0.218054
vt 1.000000 0.003750
vt 0.000000 0.655375
vt 0.781250 0.655375
vt 3.680130 0.218054
vt 1.000000 0.003750
vt 1.000000 0.645250
vt 3.455130 0.393054
vt 1.000000 0.655375
vt 1.000000 0.492250
vt 0.781250 0.655375
vt 1.000000 0.487500
vt 1.000000 0.487500
vt 3.999900 0.480554
vt 1.000000 0.146500
vt 3.199900 0.480554
vt 1.000000 0.146500
vt 1.000000 0.325000
vt 1.000000 0.325000
vt 4.487400 0.480554
vt 1.000000 0.003387
vt 1.000000 0.003387
vt 3.731150 0.480554
vt 3.493650 0.480554
vt 0.000000 0.485050
vt 0.000000 0.485050
vt 0.781250 0.655375
vt 0.781250 0.655375
vt 0.581250 0.655375
vt 1.000000 0.655375
vt 1.000000 0.492250
vt 3.673880 0.393054
vt 1.000000 0.645250
vt 1.302640 0.218054
vt 1.000000 0.146250
vt 1.000000 0.156988
vt 1.296390 0.480554
vt 3.725180 0.480554
vt 1.000000 0.473720
vt 3.673880 0.480554
vt 1.000000 0.473720
vt 0.781250 0.655375
vt 0.781250 0.655375
vt 0.781250 0.655375
vt 1.000000 0.338780
vt 3.680130 0.218054
vt 1.000000 0.338780
vn 0.0000 -0.0000 1.0000
vn 0.0000 0.0000 -1.0000
vn 0.0000 -1.0000 -0.0000
vn 1.0000 -0.0000 0.0000
vn -1.0000 0.0000 0.0000
vn 0.0000 1.0000 0.0000
s off
f 2/1/1 4/2/1 1/3/1
f 5/4/2 7/5/2 8/6/2
f 10/7/3 12/8/3 9/9/3
f 3/10/4 5/4/4 4/2/4
f 13/11/1 15/12/1 16/13/1
f 15/12/4 18/14/4 16/13/4
f 20/15/5 13/16/5 19/17/5
f 17/18/2 19/17/2 18/14/2
f 7/5/5 1/19/5 8/6/5
f 22/20/6 24/21/6 21/22/6
f 26/23/1 3/24/1 25/25/1
f 29/26/4 31/27/4 28/28/4
f 32/29/6 31/30/6 33/31/6
f 34/32/5 32/33/5 33/34/5
f 30/35/2 33/34/2 31/27/2
f 35/36/1 28/28/1 32/37/1
f 36/38/2 38/39/2 6/40/2
f 27/41/4 6/40/4 3/24/4
f 37/42/5 25/43/5 38/39/5
f 40/44/5 42/45/5 39/46/5
f 35/47/3 30/48/3 29/49/3
f 44/50/4 46/51/4 43/52/4
f 47/53/5 35/54/5 34/55/5
f 50/56/2 47/57/2 49/58/2
f 53/59/6 55/60/6 52/61/6
f 57/62/3 22/63/3 56/64/3
f 59/65/5 61/66/5 58/67/5
f 60/68/1 63/69/1 61/66/1
f 62/70/4 65/71/4 63/69/4
f 64/72/2 58/73/2 65/71/2
f 67/74/3 69/75/3 66/76/3
f 69/77/4 71/78/4 70/79/4
f 66/80/1 70/79/1 72/81/1
f 67/82/5 72/81/5 73/83/5
f 68/84/2 73/85/2 71/78/2
f 72/86/6 71/87/6 73/88/6
f 59/89/3 62/90/3 60/91/3
f 61/92/6 65/93/6 58/94/6
f 22/95/4 55/96/4 54/97/4
f 5/98/2 52/99/2 55/96/2
f 57/100/5 53/101/5 52/102/5
f 56/103/1 54/97/1 53/101/1
f 75/104/6 77/105/6 74/106/6
f 79/107/3 81/108/3 78/109/3
f 8/110/5 83/111/5 82/112/5
f 85/113/4 87/114/4 84/115/4
f 86/116/2 82/117/2 87/114/2
f 21/118/1 84/115/1 83/111/1
f 79/119/5 75/120/5 74/121/5
f 78/122/1 76/123/1 75/120/1
f 80/124/2 74/125/2 77/126/2
f 81/127/4 77/126/4 76/123/4
f 8/128/3 85/129/3 21/130/3
f 83/131/6 87/132/6 82/133/6
f 89/134/4 91/135/4 88/136/4
f 90/137/2 11/138/2 91/135/2
f 92/139/5 10/140/5 11/141/5
f 93/142/1 88/136/1 10/140/1
f 49/143/2 95/144/2 30/145/2
f 94/146/5 97/147/5 95/144/5
f 96/148/1 29/149/1 97/150/1
f 98/151/4 30/145/4 29/149/4
f 100/152/5 102/153/5 99/154/5
f 103/155/2 99/154/2 12/156/2
f 102/153/1 104/157/1 9/158/1
f 104/157/4 12/159/4 9/158/4
f 48/160/1 43/52/1 35/161/1
f 45/162/2 34/55/2 46/51/2
f 27/163/6 106/164/6 105/165/6
f 107/166/5 105/167/5 106/168/5
f 109/169/2 106/168/2 36/170/2
f 110/171/4 36/170/4 27/172/4
f 110/173/3 107/174/3 109/175/3
f 108/176/1 27/172/1 105/177/1
f 104/178/4 112/179/4 103/180/4
f 48/181/6 49/182/6 47/183/6
f 114/184/3 50/185/3 113/186/3
f 114/187/1 98/188/1 48/189/1
f 98/188/4 50/56/4 49/58/4
f 51/190/5 48/191/5 47/57/5
f 10/192/1 22/193/1 21/194/1
f 3/195/3 7/196/3 6/197/3
f 11/198/5 21/199/5 24/200/5
f 1/201/6 5/202/6 8/203/6
f 9/204/4 23/205/4 22/193/4
f 12/206/2 24/200/2 23/205/2
f 116/207/2 7/208/2 115/209/2
f 105/210/1 118/211/1 2/212/1
f 117/213/4 115/209/4 118/214/4
f 106/215/5 2/212/5 7/208/5
f 120/216/5 122/217/5 119/218/5
f 121/219/1 124/220/1 122/217/1
f 123/221/4 126/222/4 124/220/4
f 125/223/2 119/218/2 126/224/2
f 128/225/2 39/46/2 127/226/2
f 41/227/1 130/228/1 42/45/1
f 129/229/4 127/226/4 130/230/4
f 103/180/2 131/231/2 92/232/2
f 132/233/1 104/178/1 93/234/1
f 132/235/3 112/236/3 111/237/3
f 131/231/5 93/238/5 92/232/5
f 104/239/6 92/240/6 93/241/6
f 2/1/1 3/10/1 4/2/1
f 5/4/2 6/242/2 7/5/2
f 10/7/3 11/243/3 12/8/3
f 3/10/4 6/242/4 5/4/4
f 13/11/1 14/244/1 15/12/1
f 15/12/4 17/18/4 18/14/4
f 20/15/5 14/245/5 13/16/5
f 17/18/2 20/15/2 19/17/2
f 7/5/5 2/246/5 1/19/5
f 22/20/6 23/247/6 24/21/6
f 26/23/1 27/41/1 3/24/1
f 29/26/4 30/35/4 31/27/4
f 32/29/6 28/248/6 31/30/6
f 34/32/5 35/249/5 32/33/5
f 30/35/2 34/32/2 33/34/2
f 35/36/1 29/26/1 28/28/1
f 36/38/2 37/42/2 38/39/2
f 27/41/4 36/38/4 6/40/4
f 37/42/5 26/250/5 25/43/5
f 40/44/5 41/227/5 42/45/5
f 35/47/3 34/251/3 30/48/3
f 44/50/4 45/162/4 46/51/4
f 47/53/5 48/252/5 35/54/5
f 50/56/2 51/190/2 47/57/2
f 53/59/6 54/253/6 55/60/6
f 57/62/3 5/254/3 22/63/3
f 59/65/5 60/68/5 61/66/5
f 60/68/1 62/70/1 63/69/1
f 62/70/4 64/72/4 65/71/4
f 64/72/2 59/255/2 58/73/2
f 67/74/3 68/256/3 69/75/3
f 69/77/4 68/84/4 71/78/4
f 66/80/1 69/77/1 70/79/1
f 67/82/5 66/80/5 72/81/5
f 68/84/2 67/257/2 73/85/2
f 72/86/6 70/258/6 71/87/6
f 59/89/3 64/259/3 62/90/3
f 61/92/6 63/260/6 65/93/6
f 22/95/4 5/98/4 55/96/4
f 5/98/2 57/261/2 52/99/2
f 57/100/5 56/103/5 53/101/5
f 56/103/1 22/95/1 54/97/1
f 75/104/6 76/262/6 77/105/6
f 79/107/3 80/263/3 81/108/3
f 8/110/5 21/118/5 83/111/5
f 85/113/4 86/116/4 87/114/4
f 86/116/2 8/264/2 82/117/2
f 21/118/1 85/113/1 84/115/1
f 79/119/5 78/122/5 75/120/5
f 78/122/1 81/127/1 76/123/1
f 80/124/2 79/265/2 74/125/2
f 81/127/4 80/124/4 77/126/4
f 8/128/3 86/266/3 85/129/3
f 83/131/6 84/267/6 87/132/6
f 89/134/4 90/137/4 91/135/4
f 90/137/2 92/268/2 11/138/2
f 92/139/5 93/142/5 10/140/5
f 93/142/1 89/134/1 88/136/1
f 49/143/2 94/146/2 95/144/2
f 94/146/5 96/269/5 97/147/5
f 96/148/1 98/151/1 29/149/1
f 98/151/4 49/143/4 30/145/4
f 100/152/5 101/270/5 102/153/5
f 103/155/2 100/152/2 99/154/2
f 102/153/1 101/270/1 104/157/1
f 104/157/4 103/271/4 12/159/4
f 48/160/1 44/50/1 43/52/1
f 45/162/2 47/53/2 34/55/2
f 27/163/6 36/272/6 106/164/6
f 107/166/5 108/273/5 105/167/5
f 109/169/2 107/166/2 106/168/2
f 110/171/4 109/169/4 36/170/4
f 110/173/3 108/274/3 107/174/3
f 108/176/1 110/171/1 27/172/1
f 104/178/4 111/275/4 112/179/4
f 48/181/6 98/276/6 49/182/6
f 114/184/3 51/277/3 50/185/3
f 114/187/1 113/278/1 98/188/1
f 98/188/4 113/278/4 50/56/4
f 51/190/5 114/279/5 48/191/5
f 10/192/1 9/204/1 22/193/1
f 3/195/3 2/280/3 7/196/3
f 11/198/5 10/281/5 21/199/5
f 1/201/6 4/282/6 5/202/6
f 9/204/4 12/206/4 23/205/4
f 12/206/2 11/198/2 24/200/2
f 116/207/2 106/215/2 7/208/2
f 105/210/1 117/283/1 118/211/1
f 117/213/4 116/207/4 115/209/4
f 106/215/5 105/210/5 2/212/5
f 120/216/5 121/219/5 122/217/5
f 121/219/1 123/221/1 124/220/1
f 123/221/4 125/284/4 126/222/4
f 125/223/2 120/216/2 119/218/2
f 128/225/2 40/44/2 39/46/2
f 41/227/1 129/285/1 130/228/1
f 129/229/4 128/225/4 127/226/4
f 103/180/2 112/179/2 131/231/2
f 132/233/1 111/275/1 104/178/1
f 132/235/3 131/286/3 112/236/3
f 131/231/5 132/287/5 93/238/5
f 104/239/6 103/288/6 92/240/6
