# Blender v2.82 (sub 7) OBJ File: ''
# www.blender.org
mtllib wood.mtl
v -0.5 -0.5 0.5
v -0.5 0.5 0.5
v -0.5 -0.5 -0.5
v -0.5 0.5 -0.5
v 0.5 -0.5 0.5
v 0.5 0.5 0.5
v 0.5 -0.5 -0.5
v 0.5 0.5 -0.5
vt 0 0
vt 0 1
vt 1 0
vt 1 1

vt 0.000100 0.000100
vt 0.625000 0.500000
vt 0.544963 0.919429
vt 0.625000 1.000000
vt 0.655589 0.750000
vt 0.999900 0.999900
vn -1.0000 0.0000 0.0000
vn 0.0000 0.0000 -1.0000
vn 1.0000 0.0000 0.0000
vn 0.0000 0.0000 1.0000
vn 0.0000 -1.0000 0.0000
vn 0.0000 1.0000 0.0000
usemtl wood
s off
f 2/4/1 3/1/1 1/2/1
f 2/4/1 4/3/1 3/1/1
f 4/4/2 7/1/2 3/2/2
f 4/4/2 8/3/2 7/1/2
f 7/1/5 1/4/5 3/2/5
f 7/1/5 5/3/5 1/4/5
f 8/2/3 5/3/3 7/4/3
f 8/2/3 6/1/3 5/3/3
f 6/1/4 2/3/4 1/4/4
f 6/1/4 1/4/4 5/2/4
f 4/1/6 2/3/6 6/4/6
f 4/1/6 6/4/6 8/2/6
