# Blender v2.82 (sub 7) OBJ File: ''
# www.blender.org
mtllib textured-object.mtl
o Cube_Cube.001
v -1.500000 0.000000 0.500000
v -1.500000 0.500000 0.500000
v -1.500000 0.000000 -1.500000
v -1.500000 0.500000 -1.500000
v 0.500000 0.000000 0.500000
v 0.500000 0.500000 0.500000
v 0.500000 0.000000 -1.500000
v 0.500000 0.500000 -1.500000
vt 0.625000 0.000000
vt 0.375000 0.250000
vt 0.375000 0.000000
vt 0.625000 0.250000
vt 0.375000 0.500000
vt 0.826472 0.500000
vt 0.093491 0.919429
vt 0.625000 0.750000
vt 0.375000 1.000000
vt 0.375000 0.750000
vt 0.655589 0.135359
vt 0.125000 0.750000
vt 0.125000 0.135359
vt 0.999900 0.000100
vt 0.000100 0.999900
vt 0.000100 0.000100
vt 0.625000 0.500000
vt 0.544963 0.919429
vt 0.625000 1.000000
vt 0.655589 0.750000
vt 0.999900 0.999900
vn -1.0000 0.0000 0.0000
vn 0.0000 0.0000 -1.0000
vn 1.0000 0.0000 0.0000
vn 0.0000 0.0000 1.0000
vn 0.0000 -1.0000 0.0000
vn 0.0000 1.0000 0.0000
g Cube_Cube.001_Material.001
usemtl Material.001
s off
f 2/1/1 3/2/1 1/3/1
f 4/4/2 7/5/2 3/2/2
f 8/6/3 5/7/3 7/5/3
f 7/11/5 1/12/5 3/13/5
f 2/1/1 4/4/1 3/2/1
f 8/6/3 6/18/3 5/7/3
f 7/11/5 5/20/5 1/12/5
f 4/4/2 8/17/2 7/5/2
usemtl Material.002
f 6/8/4 2/19/4 1/9/4
f 4/14/6 2/21/6 6/15/6
f 6/8/4 1/9/4 5/10/4
f 4/14/6 6/15/6 8/16/6
